<svg width="19" height="23" viewBox="0 0 19 23" fill="none" xmlns="http://www.w3.org/2000/svg">
<g id="Group">
<path id="Vector" d="M14.1899 0.550765C14.1434 0.498704 12.4651 0.571315 11.0046 2.15642C9.54421 3.74016 9.76889 5.5568 9.80177 5.60338C9.83465 5.64997 11.8842 5.72258 13.1926 3.8799C14.5009 2.03723 14.2365 0.604195 14.1899 0.550765ZM18.7302 16.6252C18.6644 16.4936 15.5449 14.9346 15.8353 11.937C16.1258 8.938 18.1301 8.116 18.1616 8.02694C18.1931 7.93789 17.3437 6.94463 16.4436 6.44184C15.7827 6.08735 15.0513 5.88425 14.3023 5.84725C14.1543 5.84314 13.6406 5.7171 12.5843 6.00617C11.8883 6.1966 10.3196 6.81311 9.88808 6.83777C9.45516 6.86243 8.16734 6.12262 6.78226 5.92671C5.89585 5.75546 4.95602 6.10618 4.28335 6.37607C3.61204 6.6446 2.33518 7.40907 1.44193 9.4408C0.548681 11.4712 1.01586 14.688 1.35014 15.6881C1.68442 16.6868 2.2064 18.324 3.09417 19.5186C3.8833 20.8667 4.92999 21.8025 5.36703 22.1203C5.80406 22.4381 7.03708 22.6491 7.89197 22.2121C8.57972 21.7901 9.82095 21.5476 10.3114 21.5654C10.8005 21.5833 11.765 21.7764 12.7528 22.3039C13.5351 22.5738 14.2749 22.4614 15.0161 22.16C15.7572 21.8573 16.83 20.7092 18.0821 18.3815C18.5575 17.2992 18.774 16.7142 18.7302 16.6252Z" fill="white"/>
<path id="Vector_2" d="M14.1899 0.550765C14.1434 0.498704 12.4651 0.571315 11.0046 2.15642C9.54421 3.74016 9.76889 5.5568 9.80177 5.60338C9.83465 5.64997 11.8842 5.72258 13.1926 3.8799C14.5009 2.03723 14.2365 0.604195 14.1899 0.550765ZM18.7302 16.6252C18.6644 16.4936 15.5449 14.9346 15.8353 11.937C16.1258 8.938 18.1301 8.116 18.1616 8.02694C18.1931 7.93789 17.3437 6.94463 16.4436 6.44184C15.7827 6.08735 15.0513 5.88425 14.3023 5.84725C14.1543 5.84314 13.6406 5.7171 12.5843 6.00617C11.8883 6.1966 10.3196 6.81311 9.88808 6.83777C9.45516 6.86243 8.16734 6.12262 6.78226 5.92671C5.89585 5.75546 4.95602 6.10618 4.28335 6.37607C3.61204 6.6446 2.33518 7.40907 1.44193 9.4408C0.548681 11.4712 1.01586 14.688 1.35014 15.6881C1.68442 16.6868 2.2064 18.324 3.09417 19.5186C3.8833 20.8667 4.92999 21.8025 5.36703 22.1203C5.80406 22.4381 7.03708 22.6491 7.89197 22.2121C8.57972 21.7901 9.82095 21.5476 10.3114 21.5654C10.8005 21.5833 11.765 21.7764 12.7528 22.3039C13.5351 22.5738 14.2749 22.4614 15.0161 22.16C15.7572 21.8573 16.83 20.7092 18.0821 18.3815C18.5575 17.2992 18.774 16.7142 18.7302 16.6252Z" fill="white"/>
</g>
</svg>
