<svg width="24" height="25" viewBox="0 0 24 25" fill="none" xmlns="http://www.w3.org/2000/svg">
<g id="Group 6">
<rect id="Rectangle 9" y="0.5" width="24" height="24" rx="5" fill="white" fill-opacity="0.63"/>
<path id="Vector" d="M16.4695 12.7449H13.1021V16.1123C13.1021 16.2909 13.0312 16.4622 12.9049 16.5885C12.7786 16.7148 12.6073 16.7857 12.4286 16.7857C12.25 16.7857 12.0787 16.7148 11.9524 16.5885C11.8261 16.4622 11.7552 16.2909 11.7552 16.1123V12.7449H8.38782C8.20921 12.7449 8.03791 12.674 7.91161 12.5477C7.78531 12.4214 7.71436 12.2501 7.71436 12.0715C7.71436 11.8928 7.78531 11.7215 7.91161 11.5952C8.03791 11.4689 8.20921 11.398 8.38782 11.398H11.7552V8.03065C11.7552 7.85203 11.8261 7.68073 11.9524 7.55443C12.0787 7.42813 12.25 7.35718 12.4286 7.35718C12.6073 7.35718 12.7786 7.42813 12.9049 7.55443C13.0312 7.68073 13.1021 7.85203 13.1021 8.03065V11.398H16.4695C16.6481 11.398 16.8194 11.4689 16.9457 11.5952C17.072 11.7215 17.1429 11.8928 17.1429 12.0715C17.1429 12.2501 17.072 12.4214 16.9457 12.5477C16.8194 12.674 16.6481 12.7449 16.4695 12.7449Z" fill="#F31D1D"/>
</g>
</svg>
